<?xml version="1.0" encoding="UTF-8"?><svg id="Livello_1" xmlns="http://www.w3.org/2000/svg" viewBox="0 0 512 512"><defs><style>.cls-1{fill:#fff;}</style></defs><rect x="-.67" y=".06" width="513.35" height="512"/><g><path class="cls-1" d="m67.62,68.79c11.09,6.63,22.28,13.1,33.26,19.91,59.58,36.92,114.02,80.56,165.09,128.4,32,29.98,63.12,60.92,94.64,91.43,1.07,1.03,2.14,2.05,3.45,3.3,12.43-15.17,22.81-31.53,31.67-48.37,7.78,7.65,15.36,15.1,23.33,22.93-18.52,18.4-37.12,36.88-55.8,55.44,21.51,35.69,51.6,62.05,85.39,84.12-7.56,7.64-14.95,15.1-22.48,22.71-22.3-33.65-49.64-62.88-84.22-85.42-18.55,18.65-36.95,37.16-55.14,55.45-7.8-7.8-15.32-15.32-22.71-22.71,15.62-10.5,31.59-21.24,47.97-32.26-1.71-1.82-2.69-2.89-3.7-3.93-39.71-40.7-80.04-80.81-118.95-122.26-42.05-44.8-79.55-93.3-110.58-146.56-4.12-7.07-8-14.28-11.99-21.43.26-.25.53-.51.79-.76Zm104.32,112.35c54,54.09,108.11,108.3,162.19,162.48,3.17-3.27,6.53-6.74,9.45-9.74-54.01-54.1-108.1-108.29-162.27-162.55-3.01,3.16-6.27,6.57-9.37,9.81Z"/><path class="cls-1" d="m173.67,363.24c-34.71,22.68-61.98,51.83-84.36,85.61-7.57-7.65-14.87-15.03-22.51-22.75,33.7-22.06,63.84-48.4,85.08-83.55-18.65-18.53-37.23-37-55.47-55.13,8.44-8.35,16.08-15.89,23.11-22.84,9.87,15.18,20.38,31.33,31.37,48.23,15.29-15.89,29.7-30.85,43.33-45.01,8.08,7.36,15.01,13.69,21.87,19.95-15.31,15.25-30.24,30.12-45.2,45.02,4.01,4.02,7.47,7.48,11.11,11.12,14.74-14.82,29.51-29.66,43.89-44.13,7.24,6.7,14.14,13.09,20.9,19.34-14.58,14.62-28.76,28.83-43.4,43.51,15.89,12.7,32.05,23.17,48.39,32.78-7.66,7.71-15.22,15.32-23.14,23.3-18.03-18.19-36.39-36.71-54.98-55.46Z"/><path class="cls-1" d="m318.68,246.07c-6.73-6.33-13.12-12.36-19.61-18.47,15.35-15.24,30.57-30.34,45.81-45.46-4.2-4.2-7.61-7.62-11.03-11.04-15.14,15.25-30.29,30.5-45.78,46.09-6.52-6.17-12.55-11.89-18.95-17.94,55.49-49.51,114.15-94.15,179.25-130.01-34.28,65.41-79.68,122.56-129.69,176.83Z"/></g></svg>